# xmcd
#
# Track frame offsets:
#	150
#	30933
#	47167
#	66871
#	85066
#	100248
#	116344
#	139446
#	154202
#	172720
#	187991
#	209334
#	225712
#	242096
#
# Disc length: 3426 seconds
#
# Revision: 2
# Processed by: cddbd v1.5.2PL0 Copyright (c) Steve Scherf et al.
# Submitted via: EasyCDDAExtractor 15.3.0.1
#
DISCID=b20d600e
DTITLE=Rocio Durcal - Mis Favoritas
DYEAR=2010
DGENRE=Latin
TTITLE0=Amor Eterno
TTITLE1=La Gata Bajo La Lluvia
TTITLE2=Como Tu Mujer
TTITLE3=La Guirnalda
TTITLE4=Diferentes
TTITLE5=Como Han Pasado Los Años
TTITLE6=Y Nos Dieron Las Diez (Duo Con Joaquin Sabina)
TTITLE7=Si Nos Dejan (En Vivo)
TTITLE8=A Que Me Quedo Contigo
TTITLE9=Luz De Luna (Con El Mariachi Los Vargas De Arturo Mendoza)
TTITLE10=Si Te Pudiera Mentir
TTITLE11=Caricias
TTITLE12=Sombras... Nada Mas (Duo Con Javier Solis)
TTITLE13=Vestida De Blanco
EXTD=
EXTT0=
EXTT1=
EXTT2=
EXTT3=
EXTT4=
EXTT5=
EXTT6=
EXTT7=
EXTT8=
EXTT9=
EXTT10=
EXTT11=
EXTT12=
EXTT13=
PLAYORDER=
